PathFileType	4	(X/Y/Z)	72_2_9_p0_0-344_filt_butterworth.trc
DataRate	CameraRate	NumFrames	NumMarkers	Units	OrigDataRate	OrigDataStartFrame	OrigNumFrames
51.0	51.0	6	27	m	51.0	215	344
Frame#	Time	RHip			RKnee			RAnkle			RBigToe			RSmallToe			RHeel			LHip			LKnee			LAnkle			LBigToe			LSmallToe			LHeel			Neck			Head			Nose			RShoulder			RElbow			RWrist			RThumb			RIndex			RPinky			LShoulder			LElbow			LWrist			LThumb			LIndex			LPinky			
		X1	Y1	Z1	X2	Y2	Z2	X3	Y3	Z3	X4	Y4	Z4	X5	Y5	Z5	X6	Y6	Z6	X7	Y7	Z7	X8	Y8	Z8	X9	Y9	Z9	X10	Y10	Z10	X11	Y11	Z11	X12	Y12	Z12	X13	Y13	Z13	X14	Y14	Z14	X15	Y15	Z15	X16	Y16	Z16	X17	Y17	Z17	X18	Y18	Z18	X19	Y19	Z19	X20	Y20	Z20	X21	Y21	Z21	X22	Y22	Z22	X23	Y23	Z23	X24	Y24	Z24	X25	Y25	Z25	X26	Y26	Z26	X27	Y27	Z27	
215	4.215686274509804	0.27776510646546176	0.6581960002870635	0.7328940998477134	0.25588365221785847	0.4951147739560273	1.0476818789340636	0.22078104572466647	0.676517388275375	1.4942291594129409	0.20663520908938943	0.4770873157306823	1.4906011520344036	0.26511592226285247	0.5250829934427671	1.494740345581147	0.1846257622411224	0.7283413697984946	1.5532522637801565	0.08179857375656377	0.6647103692678061	0.7416088699709975	0.06930450604017642	0.5394308245093385	1.0463510632483095	0.004724694418460118	0.6471505717214634	1.4502135639848208	-0.007228041486078724	0.4808157054790816	1.4589225493789768	-0.05098058887137298	0.5096724251614834	1.4623912687801093	0.0022399979187538027	0.6932408457157679	1.5161302027767718	0.059894973503815424	0.5472218533134043	0.22299020354563398	-0.019975119363969732	0.4133342919918014	-0.02108365828669489	0.011157719044369605	0.36861007980078403	0.12974528988188952	0.22514630927306478	0.5108235377018158	0.2088408897257345	0.3193137173751089	0.3105723253725512	0.401278112956406	0.1270113223471121	0.2949654336619552	0.28265707071153756	0.04209435647551189	0.3102996738183859	0.21828850986050283	0.0427816589889891	0.26016983985332154	0.19921215892850047	0.05079990833650417	0.24311574362298774	0.23521307530515548	-0.05421271479974549	0.5871636434699075	0.2680828290596672	-0.11994302718605687	0.3933299368628209	0.42942512835765084	-0.0624845049457197	0.2857871680993142	0.23612386420567663	-0.007125641023178935	0.3323122264300097	0.1813949078074229	-0.02136271809899266	0.2784341684498339	0.14230232791702774	-0.03147270007099991	0.22087491625390068	0.18747757510303978
216	4.235294117647059	0.27411351561210295	0.6624207113132118	0.7252579422075266	0.2566230278434733	0.4956483390240338	1.038312486590987	0.22082805184171886	0.6767034471604578	1.4936578794995092	0.20647991653422385	0.47675503459879304	1.490710552312134	0.26513275169638867	0.5248315715467992	1.494383203474261	0.18460430292579172	0.7283391044775813	1.5531080612869586	0.07823302594197812	0.6783266740780836	0.7373875409630537	0.06759776361005079	0.539770949340132	1.045050430005958	0.0035130166954196003	0.6515144018752099	1.4504271564771734	-0.008668421142895831	0.47700428131154854	1.4557483735863752	-0.05146744341450907	0.5100090360988627	1.4617222145020778	0.0022426142875160483	0.6932894352960832	1.5160052636541992	0.06278863808425562	0.5527501321537887	0.20880642939382482	-0.017385457068855657	0.4174702035928978	-0.035990169787026884	0.014427890426036104	0.372725655213032	0.11431690665634865	0.22718178191847405	0.5149099742453909	0.1975556688164439	0.313483484612582	0.31226560280274257	0.3896137325824098	0.126166286596223	0.2886255027914193	0.26078931639883224	0.04219251811422778	0.3026907020254902	0.20257943891789224	0.044660254574843024	0.25972039958238874	0.18203473079948623	0.050286874530643344	0.244071405717397	0.21527673549341328	-0.05602387740234447	0.5811862869631594	0.26139352711332553	-0.12065592981781989	0.39782943103254825	0.41915223960364467	-0.06143881515707223	0.2867718633291531	0.22054326097480298	-0.006019159243907992	0.33313346105548086	0.16678984134114508	-0.017750861094994626	0.2840579894370552	0.1339490638833	-0.031191675579269693	0.2242188079578951	0.17386711617150075
217	4.254901960784314	0.26864522256177253	0.6616383577680824	0.7155872133792045	0.25724304342624565	0.4973380644500036	1.0311531263370908	0.2209485807279372	0.676830279212495	1.4903353097745458	0.20686862979747492	0.47703319628924007	1.4908893298342372	0.265030646545374	0.5245757786984829	1.4929284764638135	0.18448458363472064	0.7285307832564685	1.5522382120325364	0.07334664844930806	0.6967163858850685	0.7328229403778361	0.06667340021951432	0.5398362881750174	1.0429890958202037	0.0006240545400263658	0.6567940467802269	1.4507766036191958	-0.00881777492787765	0.47566111182516146	1.453821144512887	-0.05167595448009342	0.5111990593399103	1.4609911006862946	0.0022234840854260924	0.6932128546813964	1.5161966578373052	0.06541370584350745	0.5551288333165448	0.1935765927141382	-0.00995160764428079	0.4239755982595229	-0.05307980543131019	0.021144256607612603	0.37512193267787997	0.09538523678139081	0.23048371922023453	0.5199050208584395	0.18837595236093874	0.3122166542733916	0.3212096118420591	0.3791328665541859	0.12767239652999968	0.2854485651963859	0.2367748239953529	0.046894249598602986	0.2940953465131223	0.1823561809251689	0.04601456441297342	0.25816725669886553	0.1613374891194287	0.05128893439061431	0.24514418639254226	0.20208041061011325	-0.057228617937161955	0.5726617582339505	0.2538934902092454	-0.12099594446289066	0.3997937826094462	0.41303484241859467	-0.056370400008014694	0.2867616458583262	0.20947265189668973	-0.003261582830171279	0.3329446062692031	0.15286000354977855	-0.010600496989074509	0.29407139033390295	0.12481070541153749	-0.027441314311880398	0.22396461707896378	0.1529677640137406
218	4.2745098039215685	0.26149103913596655	0.6538729282158419	0.7040939269614706	0.25821309567628314	0.5006019577589347	1.0278144509782996	0.220663513582454	0.6767978751499929	1.4825636011925338	0.20903091838180676	0.48086245385860793	1.4911684234916966	0.264826796878224	0.5243497827652827	1.4901240638323632	0.18421771920471364	0.7288722024142444	1.5498478030381155	0.06881299299842306	0.709120392733868	0.7261780377239901	0.06553885300192486	0.5399002191185366	1.0392184177335613	-0.002588590708179894	0.6597688795210537	1.4511085036105194	-0.007868028562171085	0.4767860592483789	1.4529446575947835	-0.05205215337637977	0.5146013866296515	1.4605135033500494	0.0021425610432303623	0.6931309278568648	1.5162899570934147	0.06782696824684863	0.5542787554746414	0.1772840250877834	0.0025666404927277074	0.4362735036837846	-0.07119348482722762	0.027279003290278322	0.37558508906004423	0.0749585407341172	0.23320940351908076	0.5225663056359371	0.17835420887657683	0.31476390055245274	0.3338602076435214	0.3685614290093867	0.13312275244246727	0.28686439056930857	0.21951217786215063	0.056643206455769646	0.2985496322050709	0.16181608783677925	0.04820986506005165	0.2598618391659611	0.14332452711338423	0.05610186068029549	0.24843401776436824	0.19315482997598796	-0.05629411530970332	0.5675296063079157	0.24385302225227526	-0.12043536570796028	0.3998611537378089	0.4080388440221869	-0.05028182988392796	0.28659885883507213	0.20196996325031133	-0.000211507393589718	0.33202923867678136	0.1416883722112803	-0.005312019504978949	0.3026916709651696	0.11386278790996629	-0.022430006515447895	0.216878088678356	0.13205822282876614
219	4.294117647058823	0.25378901893412226	0.6430372365235313	0.6930535647705053	0.2599039493965723	0.5050866383022484	1.0274857171341585	0.21973221921835795	0.6765347761396006	1.4728400623761237	0.21295074313063583	0.4900276781933982	1.4913852701217296	0.2649947347227657	0.5243291363737751	1.4867595783806589	0.18382487749776838	0.729107117091804	1.5447154830734056	0.06400941429830914	0.7056782274146727	0.7156197485091607	0.06279429514370671	0.5397892413464708	1.0326879051725713	-0.004473894725770102	0.6599296907056649	1.4512626526925967	-0.006074529690084593	0.4805445425582221	1.4540900215141699	-0.05250772357745409	0.519509842604838	1.459493547018025	0.001958039960859236	0.6930552255289449	1.5163478304389169	0.07052665383100135	0.5547626509591488	0.16054267169380848	0.017799928284467827	0.4527074146644321	-0.0902644372210541	0.03187799696033468	0.3790980245510682	0.054810255785939795	0.23414702818325234	0.5216138893451523	0.16507627065006772	0.3195243340106235	0.34769589595925765	0.3567965814923086	0.14193912958121505	0.297683767061695	0.21154725903387328	0.06944103624410514	0.31844437987207747	0.14566215606102434	0.05366095858419884	0.2693635784456279	0.13229185840778887	0.06514957304279621	0.25709532898824716	0.18259033373165787	-0.05410340303942224	0.5680868972310047	0.22637043584008343	-0.11797682704806257	0.3979716998867824	0.39902229399016753	-0.04532497012699742	0.2863692763446397	0.19372244389470591	0.001828151687816214	0.33129274009848975	0.13160377376266613	-0.0037194207427212085	0.30701857275991573	0.10089236183838317	-0.018956295111528996	0.20512429232499	0.117526583087647
220	4.313725490196078	0.2478767103796766	0.6357309043507621	0.6842489317990523	0.26128012181089894	0.512348941956789	1.0278568030003754	0.21860858903406713	0.6766384141242662	1.4658588395485799	0.21657055512617718	0.5014763172634831	1.4915895721200116	0.26626627916458956	0.5253812726045488	1.4848306505250817	0.18351834013970697	0.7293018695605181	1.5369849042717219	0.05731159821374534	0.6874815726099697	0.7013893970871743	0.05847572504460611	0.538958458774689	1.0236228142275128	-0.004905711483001088	0.6592395679569629	1.4512484177954572	-0.004050180229818893	0.48562618932066126	1.4569787102145009	-0.05271837498196212	0.5234393010075107	1.4591702500952173	0.001765815234895646	0.693069755917346	1.516563437206746	0.07466955070781368	0.5598836507859333	0.14461285452331213	0.03229154541257699	0.4676438793176445	-0.11024328196755703	0.03780980623251645	0.3903197744140329	0.03583225521973039	0.23502949950438934	0.5190738003058012	0.15056213441030766	0.3266224436623188	0.3647487050358983	0.344364481666726	0.15229168896851092	0.31576602117006725	0.2056215877809675	0.08189609838485236	0.3370265077897191	0.13249008086759717	0.06345692442633422	0.28340547093496327	0.12360096044495075	0.07548865850031466	0.2671279207942161	0.1662104320070904	-0.05239844466519227	0.5695896372681682	0.20134376305556043	-0.11342665970471141	0.3935601653900947	0.3832097226888557	-0.04112643281727681	0.2854957153539781	0.1810014207725282	0.0032410570336395238	0.3317277613045566	0.11828202341061074	-0.0021189342787201982	0.3096604829162506	0.08551024535600213	-0.01652275276803559	0.19784773828647342	0.1086620194980121
